<svg version="1.2" baseProfile="tiny-ps" xmlns="http://www.w3.org/2000/svg" viewBox="0 0 1512 864" width="1512" height="864">
	<title>SL_040621_42020_15-ai</title>
	<defs>
		<radialGradient id="grd1" gradientUnits="userSpaceOnUse"  cx="926.494" cy="111.709" r="938.671">
			<stop offset="0.163" stop-color="#004acf"  />
			<stop offset="1" stop-color="#001855"  />
		</radialGradient>
		<linearGradient id="grd2" gradientUnits="userSpaceOnUse"  x1="1082.95" y1="205.808" x2="1645.617" y2="144.475">
			<stop offset="0" stop-color="#000000"  />
			<stop offset="1" stop-color="#b8b8b8"  />
		</linearGradient>
		<linearGradient id="grd3" gradientUnits="userSpaceOnUse"  x1="405.52" y1="751.634" x2="-157.147" y2="812.967">
			<stop offset="0" stop-color="#000000"  />
			<stop offset="1" stop-color="#b8b8b8"  />
		</linearGradient>
		<linearGradient id="grd4" gradientUnits="userSpaceOnUse"  x1="-Infinity" y1="-Infinity" x2="0" y2="0">
			<stop offset="0" stop-color="#999999"  />
			<stop offset="1" stop-color="#ffffff"  />
		</linearGradient>
		<radialGradient id="grd5" gradientUnits="userSpaceOnUse"  cx="556.704" cy="375.547" r="722.065">
			<stop offset="0.163" stop-color="#ffe501"  />
			<stop offset="1" stop-color="#ffb900"  />
		</radialGradient>
		<radialGradient id="grd6" gradientUnits="userSpaceOnUse"  cx="556.704" cy="376.042" r="690.418">
			<stop offset="0.163" stop-color="#ffe501"  />
			<stop offset="1" stop-color="#ffb900"  />
		</radialGradient>
		<linearGradient id="grd7" gradientUnits="userSpaceOnUse"  x1="-Infinity" y1="-Infinity" x2="0" y2="0">
			<stop offset="0" stop-color="#999999"  />
			<stop offset="1" stop-color="#ffffff"  />
		</linearGradient>
		<linearGradient id="grd8" gradientUnits="userSpaceOnUse"  x1="1145.548" y1="311.068" x2="464.312" y2="542.688">
			<stop offset="0" stop-color="#999999"  />
			<stop offset="1" stop-color="#ffffff"  />
		</linearGradient>
		<linearGradient id="grd9" gradientUnits="userSpaceOnUse"  x1="1095.554" y1="328.066" x2="554.038" y2="512.182">
			<stop offset="0" stop-color="#999999"  />
			<stop offset="1" stop-color="#ffffff"  />
		</linearGradient>
	</defs>
	<style>
		tspan { white-space:pre }
		.shp0 { fill: url(#grd1) } 
		.shp1 { mix-blend-mode: overlay;fill: #707070 } 
		.shp2 { mix-blend-mode: overlay;fill: #919191 } 
		.shp3 { mix-blend-mode: overlay;fill: #a8a8a8 } 
		.shp4 { mix-blend-mode: overlay;fill: #e6e6e6 } 
		.shp5 { mix-blend-mode: overlay;fill: #666666 } 
		.shp6 { mix-blend-mode: overlay;fill: #1a1a1a } 
		.shp7 { fill: url(#grd2) } 
		.shp8 { fill: url(#grd3) } 
		.shp9 { fill: url(#grd4) } 
		.shp10 { fill: url(#grd5) } 
		.shp11 { mix-blend-mode: screen;fill: url(#grd6) } 
		.shp12 { fill: url(#grd7) } 
		.shp13 { fill: url(#grd8) } 
		.shp14 { fill: #fefefe } 
		.shp15 { mix-blend-mode: screen;fill: url(#grd9) } 
		.shp16 { fill: #ababab } 
		.shp17 { fill: #001e64 } 
		.shp18 { fill: #0049ce } 
		.shp19 { fill: #ffffff } 
	</style>
	<g id="Layer 1">
		<g id="&lt;Group&gt;">
			<path id="&lt;Path&gt;" class="shp0" d="M1512 864L0 864L0 0L1512 0L1512 864Z" />
			<g id="&lt;Clip Group&gt;">
				<g id="&lt;Group&gt;">
					<path id="&lt;Path&gt;" class="shp1" d="M1320.89 251.74C1307.03 237.88 1284.55 237.88 1270.69 251.74L894.21 628.22C880.35 642.08 880.35 664.55 894.21 678.42C908.07 692.28 930.55 692.28 944.41 678.42L1320.89 301.94C1334.75 288.08 1334.75 265.6 1320.89 251.74Z" />
					<path id="&lt;Path&gt;" class="shp1" d="M1128.87 611.32C1121.61 604.07 1109.85 604.07 1102.6 611.32L905.56 808.36C898.3 815.62 898.3 827.38 905.56 834.63L905.56 834.63C912.81 841.89 924.58 841.89 931.83 834.63L1128.87 637.6C1136.12 630.34 1136.12 618.58 1128.87 611.32Z" />
					<path id="&lt;Path&gt;" class="shp1" d="M1234.28 59.7C1227.09 52.51 1215.44 52.51 1208.25 59.7L1013.05 254.9C1005.86 262.08 1005.86 273.74 1013.05 280.92C1020.24 288.11 1031.89 288.11 1039.08 280.92L1234.28 85.72C1241.46 78.54 1241.46 66.89 1234.28 59.7Z" />
					<path id="&lt;Path&gt;" class="shp1" d="M985.08 43.3C978.07 36.29 966.71 36.29 959.71 43.3L769.41 233.6C762.4 240.61 762.4 251.97 769.41 258.97C776.41 265.98 787.77 265.98 794.78 258.97L985.08 68.67C992.09 61.66 992.09 50.3 985.08 43.3Z" />
					<path id="&lt;Path&gt;" class="shp1" d="M707.83 249.55C695.18 236.9 674.68 236.9 662.04 249.55L318.6 592.98C305.95 605.63 305.95 626.13 318.6 638.78L318.6 638.78C331.25 651.42 351.75 651.42 364.39 638.78L707.83 295.34C720.47 282.7 720.47 262.19 707.83 249.55Z" />
					<path id="&lt;Path&gt;" class="shp1" d="M1653.34 401.76C1633.13 381.55 1600.35 381.55 1580.14 401.76L1031.1 950.8C1010.89 971.02 1010.89 1003.79 1031.1 1024.01L1031.1 1024.01C1051.32 1044.22 1084.09 1044.22 1104.31 1024.01L1653.34 474.97C1673.56 454.75 1673.56 421.98 1653.34 401.76Z" />
					<path id="&lt;Path&gt;" class="shp1" d="M291.49 561.94C281.72 552.16 265.86 552.16 256.09 561.94L-9.43 827.46C-19.21 837.24 -19.21 853.09 -9.43 862.87C0.34 872.64 16.19 872.64 25.97 862.87L291.49 597.34C301.27 587.57 301.27 571.72 291.49 561.94Z" />
					<path id="&lt;Path&gt;" class="shp1" d="M243.31 39.72C235.76 32.17 223.52 32.17 215.97 39.72L10.91 244.78C3.36 252.33 3.36 264.58 10.91 272.13C18.46 279.68 30.7 279.68 38.25 272.13L243.31 67.06C250.86 59.51 250.86 47.27 243.31 39.72Z" />
					<path id="&lt;Path&gt;" class="shp2" d="M602.63 523.74C590.46 511.56 570.72 511.56 558.54 523.74L227.85 854.43C215.68 866.6 215.68 886.34 227.85 898.52L227.85 898.52C240.03 910.69 259.77 910.69 271.94 898.52L602.63 567.83C614.81 555.65 614.81 535.91 602.63 523.74Z" />
					<path id="&lt;Path&gt;" class="shp2" d="M783.81 1.35C773.34 -9.12 756.37 -9.12 745.89 1.35L461.52 285.73C451.05 296.2 451.05 313.18 461.52 323.65L461.52 323.65C471.99 334.12 488.96 334.12 499.43 323.65L783.81 39.27C794.28 28.8 794.28 11.82 783.81 1.35Z" />
					<path id="&lt;Path&gt;" class="shp2" d="M799.29 625.13C793.61 619.45 784.4 619.45 778.73 625.13L624.46 779.39C618.78 785.07 618.78 794.28 624.46 799.96L624.46 799.96C630.14 805.64 639.35 805.64 645.03 799.96L799.29 645.7C804.97 640.02 804.97 630.81 799.29 625.13Z" />
					<path id="&lt;Path&gt;" class="shp2" d="M1580.85 210.62C1567.25 197.03 1545.22 197.03 1531.63 210.62L1162.5 579.75C1148.91 593.34 1148.91 615.38 1162.5 628.97C1176.09 642.56 1198.13 642.56 1211.72 628.97L1580.85 259.84C1594.44 246.25 1594.44 224.21 1580.85 210.62Z" />
					<path id="&lt;Path&gt;" class="shp2" d="M284.02 417.89C272.11 405.97 252.79 405.97 240.87 417.89L-82.78 741.54C-94.69 753.45 -94.69 772.77 -82.78 784.69L-82.78 784.69C-70.86 796.61 -51.54 796.61 -39.62 784.69L284.02 461.04C295.94 449.13 295.94 429.81 284.02 417.89Z" />
					<path id="&lt;Path&gt;" class="shp2" d="M703.08 -166.86C681.39 -188.55 646.21 -188.55 624.52 -166.86L35.31 422.35C13.62 444.04 13.62 479.22 35.31 500.91L35.31 500.91C57.01 522.6 92.18 522.6 113.87 500.91L703.08 -88.3C724.77 -109.99 724.77 -145.16 703.08 -166.86Z" />
					<path id="&lt;Path&gt;" class="shp2" d="M1623.6 -109.12C1607.32 -125.4 1580.92 -125.4 1564.64 -109.12L1122.44 333.08C1106.16 349.36 1106.16 375.75 1122.44 392.04L1122.44 392.04C1138.72 408.32 1165.12 408.32 1181.4 392.04L1623.6 -50.16C1639.88 -66.44 1639.88 -92.84 1623.6 -109.12Z" />
					<path id="&lt;Path&gt;" class="shp2" d="M1083.46 178.25C1066.57 161.36 1039.19 161.36 1022.3 178.25L563.58 636.97C546.69 653.86 546.69 681.24 563.58 698.13L563.58 698.13C580.47 715.02 607.86 715.02 624.75 698.13L1083.46 239.41C1100.35 222.52 1100.35 195.14 1083.46 178.25Z" />
				</g>
				<g id="&lt;Group&gt;">
					<path id="&lt;Path&gt;" class="shp3" d="M41.32 241.46C92.64 208.34 155.64 204.21 215.67 204.35C275.71 204.49 337.38 207.74 394.1 186.74C458.88 162.77 510.58 109.53 573.77 81.19C642.94 50.17 720.55 51.07 795.58 52.46C870.61 53.84 950.78 59.28 1017.36 23.59C1145.38 -45.03 1166.64 -172.49 1160.02 -251.52C871.4 -315.67 556.73 -264.66 262.21 -283.5C154.61 -290.38 39.84 -292.44 -52.79 -233.79C-135.51 -181.42 -188.32 -86.14 -209.74 13.19C-231.17 112.52 -224.3 216.21 -209.57 316.77C-204.42 352.01 -198.06 387.84 -181.6 418.92C-151.21 476.32 -50.13 513.81 -28.96 428.59C-21.94 400.32 -31.98 368.32 -25.6 338.98C-16.84 298.74 7.96 262.99 41.32 241.46Z" />
					<path id="&lt;Path&gt;" class="shp4" d="M-68.78 233.72C-22.43 193.94 39.42 181.28 98.92 173.26C158.41 165.23 219.95 160.07 273.29 131.56C334.21 99 378.2 39.23 436.95 2.56C501.26 -37.58 578.27 -47.23 652.79 -56.06C727.31 -64.88 807.48 -70.39 868.59 -114.8C986.09 -200.19 989.83 -329.36 972.53 -406.75C677.86 -431.07 373.05 -337.77 78.7 -316.39C-28.83 -308.58 -142.81 -295.02 -226.61 -224.32C-301.45 -161.19 -340.81 -59.62 -348.54 41.7C-356.26 143.02 -335.36 244.81 -307.1 342.44C-297.2 376.65 -286.04 411.28 -265.5 439.84C-227.59 492.57 -122.35 515.97 -112.97 428.67C-109.85 399.7 -124.15 369.37 -121.81 339.44C-118.6 298.38 -98.9 259.59 -68.78 233.72Z" />
					<path id="&lt;Path&gt;" class="shp5" d="M1515.03 636.23C1476.16 661.44 1427.65 665.75 1381.33 666.89C1335.02 668.02 1287.38 666.93 1244.07 683.41C1194.62 702.23 1155.9 742.13 1107.77 764.1C1055.09 788.15 995.2 789.09 937.29 789.63C879.38 790.16 819.48 791.14 766.83 815.25C714.17 839.37 670.53 893.28 677.36 950.79C901.41 991.63 1128.45 1016.02 1356.06 1023.69C1439.22 1026.5 1527.8 1025.63 1597.98 980.95C1660.65 941.04 1699.31 870.46 1713.67 797.56C1728.04 724.67 1720.48 649.18 1706.93 576.13C1702.18 550.53 1696.5 524.53 1683.13 502.19C1658.43 460.95 1579.64 435.69 1565.17 498.29C1560.37 519.06 1568.81 542.18 1564.52 563.72C1558.64 593.25 1540.29 619.84 1515.03 636.23Z" />
					<path id="&lt;Path&gt;" class="shp6" d="M1549.46 673.95C1514.15 703.94 1466.59 714.43 1420.8 721.49C1375.01 728.55 1327.62 733.57 1286.79 755.46C1240.16 780.46 1206.86 824.99 1161.94 852.95C1112.78 883.56 1053.5 892.16 996.14 900.11C938.77 908.06 879.49 916.7 830.37 947.36C781.24 978.02 744.86 1037.09 759 1093.24C986.44 1105.05 1214.74 1100.14 1441.45 1078.59C1524.28 1070.72 1612.02 1058.51 1675.9 1005.2C1732.94 957.6 1762.24 882.64 1767.14 808.51C1772.05 734.37 1754.88 660.47 1732.08 589.76C1724.1 564.98 1715.13 539.92 1699 519.48C1669.23 481.75 1587.85 466.79 1581.51 530.72C1579.41 551.94 1590.75 573.79 1589.26 595.7C1587.21 625.74 1572.42 654.46 1549.46 673.95Z" />
				</g>
				<g id="&lt;Group&gt;">
					<path id="&lt;Path&gt;" class="shp7" d="M1556.43 160.23L1062.78 320.96L1543.33 251.14L1556.43 160.23Z" />
					<path id="&lt;Path&gt;" class="shp8" d="M-67.96 797.21L425.69 636.48L-54.86 706.3L-67.96 797.21Z" />
				</g>
			</g>
			<g id="&lt;Group&gt;">
				<g id="&lt;Group&gt;">
					<path id="&lt;Mesh&gt;" fill-rule="evenodd" class="shp9" d="M0 0C0 0 1311.46 501.89 1311.47 501.91C1311.46 501.92 0 0 0 0ZM0 0C0 0 1202.29 657.49 1202.28 657.51C1202.26 657.51 0 0 0 0ZM0 0C0 0 408.48 764.73 408.46 764.74C408.46 764.72 0 0 0 0ZM408.46 476.63C408.46 476.65 0 0 0 0C0 0 408.48 476.63 408.46 476.63ZM0 0L0 0L0 0L0 0L0 0ZM0 0L0 0L0 0L0 0L0 0ZM0 0L0 0L0 0L0 0L0 0ZM0 0L0 0L0 0L0 0L0 0ZM0 0L0 0L0 0L0 0L0 0ZM0 0L0 0L0 0L0 0L0 0ZM0 0L0 0L0 0L0 0L0 0ZM0 0L0 0L0 0L0 0L0 0ZM0 0L0 0L0 0L0 0L0 0ZM0 0L0 0L0 0L0 0L0 0ZM0 0L0 0L0 0L0 0L0 0ZM0 0L0 0L0 0L0 0L0 0ZM0 0L0 0L0 0L0 0L0 0ZM0 0L0 0L0 0L0 0L0 0ZM0 0L0 0L0 0L0 0L0 0ZM0 0L0 0L0 0L0 0L0 0ZM0 0L0 0L0 0L0 0L0 0ZM0 0L0 0L0 0L0 0L0 0ZM0 0L0 0L0 0L0 0L0 0ZM0 0L0 0L0 0L0 0L0 0ZM0 0L0 0L0 0L0 0L0 0ZM0 0L0 0L0 0L0 0L0 0ZM0 0L0 0L0 0L0 0L0 0ZM0 0L0 0L0 0L0 0L0 0ZM0 0L0 0L0 0L0 0L0 0ZM0 0L0 0L0 0L0 0L0 0ZM0 0L0 0L0 0L0 0L0 0ZM0 0L0 0L0 0L0 0L0 0ZM0 0L0 0L0 0L0 0L0 0ZM0 0L0 0L0 0L0 0L0 0ZM1287.71 503.12L0 0L0 0L1292.46 502.88L0 0L0 0L1287.71 503.12ZM0 0L0 0L0 0L0 0L0 0ZM1191.64 640.03L0 0L0 0L1193.77 643.52L0 0L0 0L1191.64 640.03ZM0 0L0 0L0 0L0 0L0 0ZM427.21 743.28L0 0L0 0L423.46 747.57L0 0L0 0L427.21 743.28ZM0 0L0 0L0 0L0 0L0 0ZM427.21 493.02L0 0L0 0L423.46 489.74L0 0L0 0L427.21 493.02ZM0 0L0 0L0 0L0 0L0 0ZM0 0L0 0L0 0L0 0L0 0ZM0 0L0 0L0 0L0 0L0 0ZM0 0L0 0L0 0L0 0L0 0ZM1282.96 503.36L0 0L0 0L1287.71 503.12L0 0L0 0L1282.96 503.36ZM0 0L0 0L0 0L0 0L0 0ZM1189.51 636.53L0 0L0 0L1191.64 640.03L0 0L0 0L1189.51 636.53ZM0 0L0 0L0 0L0 0L0 0ZM430.96 738.99L0 0L0 0L427.21 743.28L0 0L0 0L430.96 738.99ZM0 0L0 0L0 0L0 0L0 0ZM430.96 496.3L0 0L0 0L427.21 493.02L0 0L0 0L430.96 496.3ZM0 0L0 0L0 0L0 0L0 0ZM0 0L0 0L0 0L0 0L0 0ZM0 0L0 0L0 0L0 0L0 0ZM0 0L0 0L0 0L0 0L0 0ZM1273.46 503.84L0 0L0 0L1282.96 503.36L0 0L0 0L1273.46 503.84ZM0 0L0 0L0 0L0 0L0 0ZM1185.26 629.54L0 0L0 0L1189.51 636.53L0 0L0 0L1185.26 629.54ZM0 0L0 0L0 0L0 0L0 0ZM438.46 730.41L0 0L0 0L430.96 738.99L0 0L0 0L438.46 730.41ZM0 0L0 0L0 0L0 0L0 0ZM438.46 502.85L0 0L0 0L430.96 496.3L0 0L0 0L438.46 502.85ZM0 0L0 0L0 0L0 0L0 0ZM0 0L0 0L0 0L0 0L0 0ZM0 0L0 0L0 0L0 0L0 0ZM0 0L0 0L0 0L0 0L0 0ZM1268.71 504.09L0 0L0 0L1273.46 503.84L0 0L0 0L1268.71 504.09ZM0 0L0 0L0 0L0 0L0 0ZM1183.13 626.04L0 0L0 0L1185.26 629.54L0 0L0 0L1183.13 626.04ZM0 0L0 0L0 0L0 0L0 0ZM442.21 726.12L0 0L0 0L438.46 730.41L0 0L0 0L442.21 726.12ZM0 0L0 0L0 0L0 0L0 0ZM442.21 506.13L0 0L0 0L438.46 502.85L0 0L0 0L442.21 506.13ZM0 0L0 0L0 0L0 0L0 0ZM0 0L0 0L0 0L0 0L0 0ZM0 0L0 0L0 0L0 0L0 0ZM0 0L0 0L0 0L0 0L0 0ZM1263.96 504.33L0 0L0 0L1268.71 504.09L0 0L0 0L1263.96 504.33ZM0 0L0 0L0 0L0 0L0 0ZM1181 622.54L0 0L0 0L1183.13 626.04L0 0L0 0L1181 622.54ZM0 0L0 0L0 0L0 0L0 0ZM445.96 721.83L0 0L0 0L442.21 726.12L0 0L0 0L445.96 721.83ZM0 0L0 0L0 0L0 0L0 0ZM445.96 509.41L0 0L0 0L442.21 506.13L0 0L0 0L445.96 509.41ZM0 0L0 0L0 0L0 0L0 0ZM0 0L0 0L0 0L0 0L0 0ZM0 0L0 0L0 0L0 0L0 0ZM0 0L0 0L0 0L0 0L0 0ZM1254.46 504.81L0 0L0 0L1263.96 504.33L0 0L0 0L1254.46 504.81ZM0 0L0 0L0 0L0 0L0 0ZM1176.75 615.55L0 0L0 0L1181 622.54L0 0L0 0L1176.75 615.55ZM0 0L0 0L0 0L0 0L0 0ZM453.46 713.25L0 0L0 0L445.96 721.83L0 0L0 0L453.46 713.25ZM0 0L0 0L0 0L0 0L0 0ZM453.46 515.96L0 0L0 0L445.96 509.41L0 0L0 0L453.46 515.96ZM0 0L0 0L0 0L0 0L0 0ZM0 0L0 0L0 0L0 0L0 0ZM0 0L0 0L0 0L0 0L0 0ZM0 0L0 0L0 0L0 0L0 0ZM1235.45 505.78L0 0L0 0L1254.46 504.81L0 0L0 0L1235.45 505.78ZM0 0L0 0L0 0L0 0L0 0ZM1168.24 601.56L0 0L0 0L1176.75 615.55L0 0L0 0L1168.24 601.56ZM0 0L0 0L0 0L0 0L0 0ZM468.46 696.09L0 0L0 0L453.46 713.25L0 0L0 0L468.46 696.09ZM0 0L0 0L0 0L0 0L0 0ZM468.46 529.07L0 0L0 0L453.46 515.96L0 0L0 0L468.46 529.07ZM0 0L0 0L0 0L0 0L0 0ZM0 0L0 0L0 0L0 0L0 0Z" />
				</g>
				<path id="&lt;Path&gt;" class="shp10" d="M1210.07 377.16L463.28 478.04L463.28 705.59L1210.07 604.72L1298.28 479.03L1210.07 377.16Z" />
				<path id="&lt;Path&gt;" class="shp11" d="M1210.07 377.16L463.28 478.04L463.28 484.35L1202.77 384.46L1290.98 486.33L1207.67 605.05L1210.07 604.72L1298.28 479.03L1210.07 377.16Z" />
				<g id="&lt;Group&gt;">
					<path id="&lt;Mesh&gt;" fill-rule="evenodd" class="shp12" d="M842.5 456.07C842.48 456.07 0 0 0 0C0 0 0 0 0 0C0 0 842.5 456.05 842.5 456.07ZM243.13 389.78C243.13 389.78 243.13 389.78 243.13 389.78ZM243.13 389.78C243.12 389.76 0 0 0 0C0 0 243.14 389.76 243.13 389.78ZM252.63 389.3C252.63 389.3 252.63 389.3 252.63 389.3ZM0 0C0 0 0 0 0 0C0 0 0 0 0 0C0 0 0 0 0 0ZM0 0L0 0L0 0L0 0L0 0ZM0 0L0 0L0 0L0 0L0 0ZM0 0L0 0L0 0L0 0L0 0ZM0 0L0 0L0 0L0 0L0 0ZM0 0L0 0L0 0L0 0L0 0ZM0 0L0 0L0 0L0 0L0 0ZM0 0L0 0L0 0L0 0L0 0ZM0 0L0 0L0 0L0 0L0 0ZM0 0L0 0L0 0L0 0L0 0ZM0 0L0 0L0 0L0 0L0 0ZM0 0L0 0L0 0L0 0L0 0ZM0 0L0 0L0 0L0 0L0 0ZM0 0L0 0L0 0L0 0L0 0ZM0 0L0 0L0 0L0 0L0 0ZM0 0L0 0L0 0L0 0L0 0ZM0 0L0 0L0 0L0 0L0 0ZM0 0L0 0L0 0L0 0L0 0ZM0 0L0 0L0 0L0 0L0 0ZM0 0L0 0L0 0L0 0L0 0ZM0 0L0 0L0 0L0 0L0 0ZM0 0L0 0L0 0L0 0L0 0ZM0 0L0 0L0 0L0 0L0 0ZM0 0L0 0L0 0L0 0L0 0ZM0 0L0 0L0 0L0 0L0 0ZM0 0L0 0L0 0L0 0L0 0ZM0 0L0 0L0 0L0 0L0 0ZM0 0L0 0L0 0L0 0L0 0ZM0 0L0 0L0 0L0 0L0 0ZM0 0L0 0L0 0L0 0L0 0ZM0 0L0 0L0 0L0 0L0 0ZM0 0L0 0L0 0L0 0L0 0ZM0 0L0 0L0 0L0 0L0 0ZM0 0L0 0L0 0L0 0L0 0ZM0 0L0 0L0 0L0 0L0 0ZM0 0L0 0L0 0L0 0L0 0ZM0 0L0 0L0 0L0 0L0 0ZM0 0L0 0L0 0L0 0L0 0ZM820 436.4L0 0L0 0L823.75 439.68L0 0L0 0L820 436.4ZM0 0L0 0L0 0L0 0L0 0ZM366.33 497.69L0 0L0 0L364.82 501.67L0 0L0 0L366.33 497.69ZM0 0L0 0L0 0L0 0L0 0ZM271.64 388.33L0 0L0 0L266.89 388.57L0 0L0 0L271.64 388.33ZM0 0L0 0L0 0L0 0L0 0ZM365.09 255.16L0 0L0 0L362.96 251.66L0 0L0 0L365.09 255.16ZM0 0L0 0L0 0L0 0L0 0ZM0 0L0 0L0 0L0 0L0 0ZM0 0L0 0L0 0L0 0L0 0ZM0 0L0 0L0 0L0 0L0 0ZM812.5 429.85L0 0L0 0L820 436.4L0 0L0 0L812.5 429.85ZM0 0L0 0L0 0L0 0L0 0ZM369.34 489.71L0 0L0 0L366.33 497.69L0 0L0 0L369.34 489.71ZM0 0L0 0L0 0L0 0L0 0ZM281.14 387.84L0 0L0 0L271.64 388.33L0 0L0 0L281.14 387.84ZM0 0L0 0L0 0L0 0L0 0ZM369.34 262.15L0 0L0 0L365.09 255.16L0 0L0 0L369.34 262.15ZM0 0L0 0L0 0L0 0L0 0ZM0 0L0 0L0 0L0 0L0 0ZM0 0L0 0L0 0L0 0L0 0ZM0 0L0 0L0 0L0 0L0 0ZM808.75 426.57L0 0L0 0L812.5 429.85L0 0L0 0L808.75 426.57ZM0 0L0 0L0 0L0 0L0 0ZM370.85 485.72L0 0L0 0L369.34 489.71L0 0L0 0L370.85 485.72ZM0 0L0 0L0 0L0 0L0 0ZM285.89 387.6L0 0L0 0L281.14 387.84L0 0L0 0L285.89 387.6ZM0 0L0 0L0 0L0 0L0 0ZM371.47 265.65L0 0L0 0L369.34 262.15L0 0L0 0L371.47 265.65ZM0 0L0 0L0 0L0 0L0 0ZM0 0L0 0L0 0L0 0L0 0ZM0 0L0 0L0 0L0 0L0 0ZM0 0L0 0L0 0L0 0L0 0ZM805 423.29L0 0L0 0L808.75 426.57L0 0L0 0L805 423.29ZM0 0L0 0L0 0L0 0L0 0ZM372.36 481.73L0 0L0 0L370.85 485.72L0 0L0 0L372.36 481.73ZM0 0L0 0L0 0L0 0L0 0ZM290.64 387.36L0 0L0 0L285.89 387.6L0 0L0 0L290.64 387.36ZM0 0L0 0L0 0L0 0L0 0ZM373.6 269.14L0 0L0 0L371.47 265.65L0 0L0 0L373.6 269.14ZM0 0L0 0L0 0L0 0L0 0ZM0 0L0 0L0 0L0 0L0 0ZM0 0L0 0L0 0L0 0L0 0ZM0 0L0 0L0 0L0 0L0 0ZM797.5 416.74L0 0L0 0L805 423.29L0 0L0 0L797.5 416.74ZM0 0L0 0L0 0L0 0L0 0ZM375.37 473.76L0 0L0 0L372.36 481.73L0 0L0 0L375.37 473.76ZM0 0L0 0L0 0L0 0L0 0ZM300.14 386.88L0 0L0 0L290.64 387.36L0 0L0 0L300.14 386.88ZM0 0L0 0L0 0L0 0L0 0ZM377.85 276.14L0 0L0 0L373.6 269.14L0 0L0 0L377.85 276.14ZM0 0L0 0L0 0L0 0L0 0ZM0 0L0 0L0 0L0 0L0 0ZM0 0L0 0L0 0L0 0L0 0ZM0 0L0 0L0 0L0 0L0 0ZM782.5 403.63L0 0L0 0L797.5 416.74L0 0L0 0L782.5 403.63ZM0 0L0 0L0 0L0 0L0 0ZM381.4 457.81L0 0L0 0L375.37 473.76L0 0L0 0L381.4 457.81ZM0 0L0 0L0 0L0 0L0 0ZM319.15 385.91L0 0L0 0L300.14 386.88L0 0L0 0L319.15 385.91ZM0 0L0 0L0 0L0 0L0 0ZM386.36 290.12L0 0L0 0L377.85 276.14L0 0L0 0L386.36 290.12ZM0 0L0 0L0 0L0 0L0 0ZM0 0L0 0L0 0L0 0L0 0Z" />
				</g>
				<path id="&lt;Path&gt;" class="shp13" d="M830.51 184.29L387.35 244.15L299.14 369.84L387.35 471.71L830.51 411.85L830.51 184.29Z" />
				<g id="&lt;Group&gt;">
					<g id="&lt;Group&gt;">
						<path id="&lt;Compound Path&gt;" class="shp14" d="M864.46 182.65C864.02 173.48 859.79 164.74 852.87 158.69C850.91 156.98 848.75 155.49 846.45 154.27L847.99 151.37C850.52 152.71 852.88 154.34 855.03 156.22C862.62 162.86 867.25 172.43 867.74 182.49L864.46 182.65ZM628.8 177.23L628.36 173.98L701.41 164.11L701.85 167.37L628.8 177.23Z" />
					</g>
					<g id="&lt;Group&gt;">
						<path id="&lt;Compound Path&gt;" class="shp14" d="M295.57 422.66L270.97 394.24C265.1 387.46 261.87 378.8 261.87 369.83C261.87 366.09 262.43 362.39 263.53 358.83L266.67 359.8C265.67 363.04 265.16 366.42 265.15 369.83C265.15 378.01 268.1 385.91 273.45 392.09L298.06 420.51L295.57 422.66ZM349.62 238.75L346.93 236.86L356.84 222.74C360.78 217.1 366.21 212.68 372.53 209.94L373.83 212.96C368.07 215.45 363.13 219.49 359.53 224.62L349.62 238.75ZM446.15 201.91L445.71 198.65L591.8 178.92L592.25 182.17L446.15 201.91Z" />
					</g>
					<g id="&lt;Group&gt;">
						<path id="&lt;Path&gt;" class="shp14" d="M429.29 633.6L426 633.6L426 504.1L392.34 508.64C379.83 510.33 367.43 505.65 359.17 496.1L319.75 450.58L322.23 448.43L361.65 493.96C369.19 502.66 380.5 506.93 391.89 505.39L429.29 500.34L429.29 633.6Z" />
					</g>
					<g id="&lt;Group&gt;">
						<path id="&lt;Compound Path&gt;" class="shp14" d="M463.28 742.87C462.17 742.87 461.07 742.82 459.97 742.72L460.26 739.45C462.76 739.67 465.33 739.61 467.83 739.28L521.77 731.99L522.22 735.24L468.27 742.53C466.62 742.76 464.94 742.87 463.28 742.87Z" />
					</g>
					<g id="&lt;Group&gt;">
						<path id="&lt;Compound Path&gt;" class="shp14" d="M1287.99 558.58L1285.3 556.69L1321.14 505.62L1323.83 507.51L1287.99 558.58ZM1058.48 363.34L1058.04 360.09L1181.69 343.38L1182.13 346.64L1058.48 363.34Z" />
					</g>
				</g>
				<path id="&lt;Path&gt;" class="shp15" d="M387.35 244.15L381.27 252.81L821.44 193.35L821.44 413.07L830.51 411.85L830.51 184.29L387.35 244.15Z" />
				<path id="&lt;Compound Path&gt;" fill-rule="evenodd" class="shp16" d="M590.49 558.43C590.49 542.7 593.83 530.44 600.51 521.66C602.23 519.39 604.26 517.35 606.59 515.53C606.59 515.53 613.59 510.06 627.58 499.13C634.24 493.92 643.36 490.58 654.93 489.11C670.66 487.1 681.89 489.66 688.63 496.78C689.87 498.1 691 499.56 692.01 501.17C692.59 502.09 693.14 503.06 693.65 504.07L693.65 499.85L714.64 483.45L777.21 475.46L777.21 482.94L788.65 474L851.22 466.02L851.22 473.49L862.66 464.56L927.73 456.25L927.73 463.61L938.99 454.81L978.85 449.72C994.7 447.7 1006.68 448.97 1014.78 453.54C1017.75 455.21 1020.18 457.54 1022.06 460.52C1023.54 462.87 1024.69 465.63 1025.5 468.79C1026.48 467.44 1027.56 466.16 1028.74 464.94C1030.06 463.58 1031.46 462.31 1032.96 461.14C1032.96 461.14 1039.95 455.68 1053.95 444.74C1060.65 439.51 1069.17 436.23 1079.5 434.91C1093.2 433.16 1102.53 435.96 1107.47 443.31C1107.68 443.62 1107.89 443.94 1108.09 444.25C1112.64 451.46 1115.09 460.52 1115.43 471.44L1094.44 487.84L1081.54 491.08C1082.25 491.65 1083 492.23 1083.79 492.82L1095.76 501.84C1102.84 506.95 1108.34 512.61 1112.27 518.83L1112.39 519.02C1116.32 525.31 1118.29 533.1 1118.29 542.4C1118.29 549.19 1116.71 555.56 1113.55 561.51C1110.8 566.68 1107.09 571.09 1102.4 574.75C1102.4 574.76 1095.4 580.22 1081.41 591.15L1081.41 591.16C1080.71 591.7 1079.99 592.23 1079.24 592.75C1073.52 596.69 1066.91 599.15 1059.4 600.11C1045.57 601.87 1035.29 599.52 1028.56 593.05C1027.71 592.24 1026.92 591.35 1026.17 590.39L1008.09 604.51L975.02 608.73L970.98 592.78L970.98 595.53L949.99 611.93L917.99 616.01L917.99 608.89L907.09 617.4L841.66 625.76L841.66 551.35L826.29 563.36L820.65 564.08L820.65 614.72L799.65 631.12L767.66 635.21L767.66 560.8L752.28 572.81L746.64 573.53L746.64 624.17L725.64 640.57L693.65 644.65L693.65 613.02C692.26 616.18 690.58 619.06 688.63 621.65C686.86 623.98 684.79 626.07 682.42 627.93C682.41 627.93 675.42 633.4 661.42 644.33C654.71 649.58 645.55 652.94 633.94 654.42C618.32 656.41 607.18 653.81 600.51 646.62C593.83 639.43 590.49 627.97 590.49 612.23L590.49 558.43ZM975.78 511.61C976.11 509.57 976.27 507.33 976.27 504.89C976.27 498.34 975.08 493.57 972.7 490.6C972.2 489.98 971.63 489.44 970.98 488.98L970.98 512.22L975.78 511.61ZM917.99 515.23L917.99 485.66L906.73 494.46L894.65 496L894.65 518.21L917.99 515.23ZM917.99 580.66L917.99 538.62L898.87 553.56L894.65 554.1L894.65 583.64L917.99 580.66ZM841.66 525.33L841.66 495.11L830.22 504.05L820.65 505.27L820.65 528.02L841.66 525.33ZM767.66 534.78L767.66 504.56L756.21 513.5L746.64 514.72L746.64 537.46L767.66 534.78ZM645.02 543.6C645.02 540.29 644.75 537.47 644.2 535.13L644.2 599.7C644.2 603.08 644.47 605.97 645.02 608.37L645.02 543.6ZM1038.74 543.08L1050.96 539.68C1050.62 539.43 1050.27 539.18 1049.92 538.93L1037.41 529.62C1031.32 525.24 1026.57 520.37 1023.19 515.01L1023.02 514.74C1022.12 513.29 1021.33 511.74 1020.67 510.09C1018.84 512.83 1016.49 515.33 1013.6 517.59C1013.6 517.59 1012.18 518.69 1009.34 520.91L1020.13 557.62L1038.74 543.08Z" />
				<g id="&lt;Group&gt;">
					<path id="&lt;Compound Path&gt;" fill-rule="evenodd" class="shp17" d="M621.5 630.22C614.83 623.03 611.49 611.57 611.49 595.83L611.49 542.02C611.49 526.29 614.83 514.04 621.5 505.26C628.17 496.49 639.32 491.1 654.93 489.11C670.66 487.1 681.89 489.66 688.63 496.78C695.36 503.91 698.73 515.28 698.73 530.89L698.73 584.7C698.73 600.43 695.36 612.75 688.63 621.65C681.89 630.56 670.66 636.01 654.93 638.02C639.32 640.01 628.17 637.41 621.5 630.22ZM663.87 609.62C665.3 606.39 666.02 602.16 666.02 596.92L666.02 527.2C666.02 521.84 665.3 517.76 663.87 514.96C662.44 512.17 659.46 511.05 654.93 511.63C650.64 512.18 647.78 514.06 646.35 517.28C644.92 520.51 644.2 524.74 644.2 529.98L644.2 599.7C644.2 604.95 644.86 609 646.17 611.87C647.48 614.75 650.4 615.89 654.93 615.32C659.46 614.74 662.44 612.84 663.87 609.62Z" />
					<path id="&lt;Compound Path&gt;" class="shp17" d="M714.64 483.45L777.21 475.46L777.21 497.09L746.64 501L746.64 537.46L773.27 534.06L773.27 556.41L746.64 559.81L746.64 624.17L714.64 628.25L714.64 483.45Z" />
					<path id="&lt;Compound Path&gt;" class="shp17" d="M788.65 474L851.22 466.02L851.22 487.65L820.65 491.55L820.65 528.02L847.28 524.62L847.28 546.96L820.65 550.36L820.65 614.72L788.65 618.8L788.65 474Z" />
					<path id="&lt;Compound Path&gt;" class="shp17" d="M862.66 464.56L927.73 456.25L927.73 478.06L894.65 482.28L894.65 518.21L919.86 514.99L919.86 537.16L894.65 540.38L894.65 583.64L928.09 579.37L928.09 601L862.66 609.36L862.66 464.56Z" />
					<path id="&lt;Compound Path&gt;" fill-rule="evenodd" class="shp17" d="M938.99 454.81L978.85 449.72C994.7 447.7 1006.68 448.97 1014.78 453.54C1022.89 458.11 1026.94 467.54 1026.94 481.84C1026.94 491.49 1025.69 499.34 1023.18 505.38C1020.68 511.42 1016.04 516.48 1009.24 520.57L1029.09 588.11L996.01 592.33L980.1 529.47L970.98 530.63L970.98 595.53L938.99 599.61L938.99 454.81ZM979.92 511.08C986.36 510.26 990.86 507.99 993.42 504.26C995.98 500.54 997.26 495.28 997.26 488.49C997.26 481.94 996.07 477.17 993.69 474.2C991.3 471.23 987.19 470.11 981.35 470.85L970.98 472.18L970.98 512.22L979.92 511.08Z" />
					<path id="&lt;Compound Path&gt;" class="shp17" d="M1049.55 576.65C1042.82 570.18 1039.21 558.99 1038.74 543.08L1066.09 535.48C1066.21 544.64 1067.31 551.08 1069.4 554.81C1071.48 558.54 1074.61 560.13 1078.78 559.6C1084.14 558.91 1086.83 555.06 1086.83 548.02C1086.83 542.42 1085.55 537.76 1082.98 534.04C1080.42 530.31 1076.4 526.47 1070.91 522.53L1058.4 513.22C1052.2 508.77 1047.41 503.81 1044.01 498.34C1040.61 492.88 1038.92 486.09 1038.92 477.99C1038.92 465.83 1042.52 456.02 1049.73 448.54C1056.94 441.07 1066.86 436.52 1079.5 434.91C1093.2 433.16 1102.53 435.96 1107.47 443.31C1112.42 450.67 1115.07 460.04 1115.43 471.44L1087.9 478.35C1087.66 470.87 1086.98 465.57 1085.84 462.43C1084.71 459.3 1082.24 457.98 1078.42 458.46C1075.68 458.81 1073.57 460.25 1072.08 462.76C1070.59 465.27 1069.84 467.96 1069.84 470.82C1069.84 475.71 1070.94 479.68 1073.15 482.73C1075.35 485.79 1078.9 489.15 1083.79 492.82L1095.76 501.84C1102.92 507 1108.46 512.73 1112.39 519.02C1116.32 525.31 1118.29 533.1 1118.29 542.4C1118.29 549.19 1116.71 555.56 1113.55 561.51C1110.39 567.45 1105.95 572.4 1100.23 576.35C1094.51 580.29 1087.9 582.75 1080.39 583.71C1066.56 585.47 1056.28 583.12 1049.55 576.65Z" />
				</g>
				<g id="&lt;Group&gt;" style="mix-blend-mode: multiply">
					<path id="&lt;Compound Path&gt;" class="shp18" d="M427.64 284.27L458.94 280.27L473.45 355.21L489.1 276.42L519.27 272.57L521.55 404.33L500.84 406.98L498.4 319.42L483.07 409.24L464.65 411.6L448.35 325.15L446.39 413.93L425.36 416.61L427.64 284.27Z" />
					<path id="&lt;Compound Path&gt;" class="shp18" d="M537.36 270.26L596.7 262.68L596.7 282.57L566.54 286.42L566.54 319.19L589.53 316.26L589.53 336.47L566.54 339.41L566.54 378.86L597.03 374.97L597.03 394.7L537.36 402.32L537.36 270.26Z" />
					<path id="&lt;Compound Path&gt;" class="shp18" d="M613.49 382.65C607.95 375.43 605.18 364.53 605.18 349.96L605.18 305.62C605.18 290.73 608.2 278.99 614.23 270.39C620.26 261.8 630.45 256.58 644.79 254.75C658.6 252.99 668.49 255.1 674.47 261.07C680.44 267.05 683.43 276.18 683.43 288.46L683.43 296.93L654.9 300.58L654.9 289.82C654.9 284.6 654.3 280.74 653.11 278.23C651.91 275.72 649.25 274.72 645.12 275.25C640.88 275.79 638.14 277.61 636.89 280.7C635.64 283.8 635.02 287.95 635.02 293.17L635.02 354.31C635.02 359.52 635.8 363.53 637.38 366.32C638.95 369.1 641.81 370.23 645.94 369.7C653.54 368.73 657.35 362.54 657.35 351.13L657.35 335.64L645.45 337.16L645.45 320.04L683.6 315.17L683.6 383.65L664.36 386.1L662.73 375.39C658.6 384.5 651.48 389.7 641.37 390.99C628.33 392.66 619.04 389.88 613.49 382.65Z" />
					<path id="&lt;Compound Path&gt;" fill-rule="evenodd" class="shp18" d="M717.18 247.31L750.44 243.06L775.05 371.97L748.15 375.4L743.75 348.09L724.35 350.57L719.79 379.03L692.23 382.54L717.18 247.31ZM740.98 331L733.97 280.38L726.96 332.79L740.98 331Z" />
				</g>
				<g id="&lt;Group&gt;">
					<path id="&lt;Compound Path&gt;" class="shp19" d="M885.75 246.69L875.46 248L875.46 240.49L905.46 236.66L905.46 244.17L895.22 245.48L895.22 271.46L885.75 272.67L885.75 246.69Z" />
					<path id="&lt;Compound Path&gt;" class="shp19" d="M946.13 231.47L946.13 264.96L936.66 266.17L936.66 253.11L923.74 254.76L923.74 267.82L914.26 269.03L914.26 235.54L923.74 234.33L923.74 246.92L936.66 245.27L936.66 232.68L946.13 231.47Z" />
					<path id="&lt;Compound Path&gt;" class="shp19" d="M958.09 229.95L967.56 228.74L967.56 262.23L958.09 263.44L958.09 229.95Z" />
					<path id="&lt;Compound Path&gt;" class="shp19" d="M983.45 259.86C980.9 259.52 978.82 258.89 977.23 257.98L980.34 250.6C981.84 251.39 983.58 251.97 985.56 252.32C987.53 252.68 989.48 252.73 991.39 252.49C995.03 252.02 996.85 250.88 996.85 249.06C996.85 248.11 996.33 247.46 995.29 247.13C994.25 246.8 992.59 246.53 990.29 246.31C987.77 246.09 985.67 245.78 983.98 245.37C982.29 244.97 980.84 244.16 979.62 242.94C978.41 241.72 977.8 239.95 977.8 237.62C977.8 235.58 978.36 233.67 979.48 231.88C980.6 230.1 982.26 228.58 984.48 227.34C986.69 226.1 989.41 225.28 992.64 224.87C994.84 224.59 997.01 224.55 999.14 224.78C1001.28 225 1003.16 225.48 1004.79 226.23L1001.87 233.64C998.68 232.32 995.59 231.86 992.59 232.24C990.71 232.48 989.33 232.94 988.47 233.6C987.61 234.27 987.18 235.05 987.18 235.94C987.18 236.84 987.69 237.44 988.71 237.76C989.73 238.08 991.37 238.33 993.64 238.52C996.19 238.73 998.31 239.04 999.98 239.45C1001.65 239.86 1003.11 240.67 1004.33 241.86C1005.56 243.06 1006.17 244.83 1006.17 247.16C1006.17 249.16 1005.62 251.06 1004.5 252.82C1003.39 254.59 1001.71 256.11 999.48 257.36C997.24 258.62 994.53 259.45 991.34 259.86C988.63 260.21 986 260.21 983.45 259.86Z" />
					<path id="&lt;Compound Path&gt;" class="shp19" d="M931.16 281.82L920.29 316.7L910.15 318L903.74 298.43L897.04 319.67L886.9 320.96L876.04 288.86L885.8 287.61L892.54 308.14L899.63 285.85L908.33 284.74L915.08 305.45L922.11 282.98L931.16 281.82Z" />
					<path id="&lt;Compound Path&gt;" class="shp19" d="M966.71 303.46L966.71 310.78L939.81 314.21L939.81 280.72L966.08 277.37L966.08 284.69L949.19 286.84L949.19 292.49L964.07 290.59L964.07 297.67L949.19 299.57L949.19 305.69L966.71 303.46Z" />
					<path id="&lt;Compound Path&gt;" class="shp19" d="M1004.12 298.68L1004.12 306L977.23 309.43L977.23 275.94L1003.5 272.59L1003.5 279.91L986.61 282.07L986.61 287.71L1001.49 285.81L1001.49 292.89L986.61 294.79L986.61 300.92L1004.12 298.68Z" />
					<path id="&lt;Compound Path&gt;" class="shp19" d="M1027.56 290.85L1024.02 295.09L1024.02 303.46L1014.64 304.66L1014.64 271.17L1024.02 269.97L1024.02 283.89L1036.99 268.31L1047.42 266.98L1033.73 283.56L1048.14 300.38L1037.13 301.79L1027.56 290.85Z" />
					<path id="&lt;Compound Path&gt;" fill-rule="evenodd" class="shp19" d="M885.97 367.94C883.14 366.81 880.92 365.02 879.32 362.57C877.7 360.13 876.9 357.25 876.9 353.93C876.9 350.62 877.7 347.53 879.32 344.68C880.92 341.83 883.14 339.47 885.97 337.61C888.79 335.75 891.97 334.6 895.51 334.14C899.05 333.69 902.23 334.04 905.06 335.17C907.88 336.31 910.1 338.1 911.71 340.54C913.32 342.99 914.12 345.87 914.12 349.18C914.12 352.5 913.32 355.59 911.71 358.44C910.1 361.29 907.88 363.65 905.06 365.51C902.23 367.37 899.05 368.52 895.51 368.97C891.97 369.43 888.79 369.08 885.97 367.94ZM900.1 359.35C901.47 358.37 902.56 357.11 903.36 355.56C904.15 354 904.56 352.29 904.56 350.4C904.56 348.52 904.15 346.91 903.36 345.56C902.56 344.21 901.47 343.22 900.1 342.6C898.73 341.98 897.2 341.77 895.51 341.99C893.82 342.21 892.29 342.8 890.92 343.77C889.55 344.75 888.46 346.01 887.67 347.56C886.87 349.11 886.47 350.83 886.47 352.71C886.47 354.6 886.87 356.21 887.67 357.56C888.46 358.91 889.55 359.9 890.92 360.52C892.29 361.14 893.82 361.34 895.51 361.13C897.2 360.91 898.73 360.32 900.1 359.35Z" />
					<path id="&lt;Compound Path&gt;" class="shp19" d="M956.23 327.06L956.23 360.55L948.43 361.55L933.64 345.59L933.64 363.44L924.36 364.62L924.36 331.13L932.16 330.14L946.94 346.09L946.94 328.25L956.23 327.06Z" />
					<path id="&lt;Compound Path&gt;" class="shp19" d="M968.19 325.54L977.66 324.33L977.66 350.31L993.64 348.27L993.64 355.78L968.19 359.03L968.19 325.54Z" />
					<path id="&lt;Compound Path&gt;" class="shp19" d="M1017.18 340.76L1017.18 352.77L1007.71 353.98L1007.71 341.83L994.94 322.12L1004.94 320.84L1012.88 333.13L1020.82 318.82L1030 317.64L1017.18 340.76Z" />
				</g>
				<g id="&lt;Group&gt;">
					<path id="&lt;Compound Path&gt;" class="shp19" d="M662.09 740.93C659.44 738.66 658.12 735.14 658.12 730.37L658.12 712.56L667.21 711.4L667.21 728.94C667.21 734.08 669.24 736.39 673.31 735.87C677.35 735.35 679.37 732.52 679.37 727.38L679.37 709.85L688.32 708.71L688.32 726.52C688.32 731.29 687 735.15 684.35 738.08C681.7 741.02 677.99 742.8 673.22 743.41C668.45 744.02 664.74 743.19 662.09 740.93Z" />
					<path id="&lt;Compound Path&gt;" fill-rule="evenodd" class="shp19" d="M721.78 705.88C723.92 706.57 725.57 707.74 726.73 709.38C727.9 711.02 728.48 713.05 728.48 715.47C728.48 717.89 727.9 720.06 726.73 721.98C725.57 723.9 723.92 725.48 721.78 726.72C719.64 727.96 717.11 728.76 714.21 729.13L708.61 729.85L708.61 738.25L699.52 739.41L699.52 707.28L714.21 705.4C717.11 705.03 719.64 705.19 721.78 705.88ZM717.88 720.29C718.82 719.36 719.3 718.14 719.3 716.64C719.3 715.14 718.82 714.04 717.88 713.33C716.93 712.63 715.52 712.4 713.66 712.63L708.61 713.28L708.61 722.69L713.66 722.04C715.52 721.8 716.93 721.22 717.88 720.29Z" />
					<path id="&lt;Compound Path&gt;" class="shp19" d="M744 708.81L734.13 710.07L734.13 702.86L762.9 699.19L762.9 706.39L753.08 707.65L753.08 732.57L744 733.73L744 708.81Z" />
					<path id="&lt;Compound Path&gt;" fill-rule="evenodd" class="shp19" d="M777.94 727.88C775.23 726.79 773.1 725.07 771.56 722.73C770.01 720.39 769.24 717.63 769.24 714.44C769.24 711.26 770.01 708.3 771.56 705.56C773.1 702.83 775.23 700.57 777.94 698.78C780.64 697 783.7 695.89 787.09 695.46C790.49 695.02 793.54 695.35 796.25 696.45C798.95 697.54 801.08 699.26 802.63 701.6C804.17 703.94 804.95 706.7 804.95 709.88C804.95 713.07 804.17 716.03 802.63 718.76C801.08 721.5 798.95 723.76 796.25 725.54C793.54 727.33 790.49 728.44 787.09 728.87C783.7 729.3 780.64 728.98 777.94 727.88ZM791.5 719.63C792.81 718.7 793.86 717.49 794.62 716C795.38 714.51 795.77 712.86 795.77 711.06C795.77 709.25 795.38 707.7 794.62 706.41C793.86 705.11 792.81 704.17 791.5 703.57C790.18 702.97 788.72 702.78 787.09 702.98C785.47 703.19 784 703.76 782.69 704.69C781.37 705.63 780.33 706.84 779.57 708.33C778.8 709.82 778.42 711.47 778.42 713.27C778.42 715.08 778.8 716.63 779.57 717.92C780.33 719.22 781.37 720.16 782.69 720.76C784 721.35 785.47 721.55 787.09 721.34C788.72 721.14 790.18 720.57 791.5 719.63Z" />
					<path id="&lt;Compound Path&gt;" fill-rule="evenodd" class="shp19" d="M853.51 700.54C855.19 701.17 856.53 702.19 857.52 703.61C858.52 705.03 859.01 706.73 859.01 708.72C859.01 710.89 858.46 712.88 857.34 714.69C856.22 716.5 854.71 717.98 852.79 719.13C850.88 720.28 848.75 721 846.39 721.3C841.8 721.89 838.18 720.99 835.51 718.6C832.85 716.22 831.52 712.48 831.52 707.36C831.52 703.69 832.23 700.44 833.65 697.61C835.08 694.79 837.08 692.52 839.65 690.81C842.22 689.11 845.2 688.04 848.6 687.6C850.43 687.37 852.18 687.35 853.83 687.53C855.48 687.72 856.89 688.12 858.05 688.74L854.75 695.68C853.19 694.78 851.21 694.48 848.82 694.78C846.5 695.08 844.62 695.96 843.18 697.43C841.74 698.9 840.91 700.86 840.7 703.3C842.54 701.48 844.95 700.37 847.95 699.99C849.97 699.73 851.82 699.92 853.51 700.54ZM848.98 713.4C849.8 712.56 850.2 711.51 850.2 710.26C850.2 709.03 849.8 708.11 848.98 707.48C848.17 706.84 847.11 706.61 845.8 706.78C844.48 706.95 843.41 707.46 842.58 708.32C841.76 709.17 841.34 710.21 841.34 711.43C841.34 712.63 841.75 713.55 842.56 714.19C843.37 714.84 844.46 715.08 845.84 714.9C847.13 714.74 848.17 714.23 848.98 713.4Z" />
					<path id="&lt;Compound Path&gt;" fill-rule="evenodd" class="shp19" d="M873.2 715.9C871.05 714.86 869.38 713.16 868.17 710.79C866.96 708.42 866.36 705.5 866.36 702.04C866.36 698.59 866.96 695.52 868.17 692.84C869.38 690.16 871.05 688.03 873.2 686.44C875.34 684.85 877.79 683.88 880.54 683.53C883.26 683.18 885.69 683.53 887.84 684.57C889.98 685.61 891.66 687.32 892.86 689.69C894.07 692.06 894.68 694.97 894.68 698.43C894.68 701.89 894.07 704.96 892.86 707.63C891.66 710.31 889.98 712.45 887.84 714.04C885.69 715.63 883.26 716.59 880.54 716.94C877.79 717.29 875.34 716.95 873.2 715.9ZM884.19 706.81C885.09 705.22 885.54 702.81 885.54 699.59C885.54 696.38 885.09 694.09 884.19 692.72C883.29 691.35 882.07 690.77 880.54 690.96C878.98 691.16 877.75 692.06 876.85 693.66C875.94 695.26 875.49 697.67 875.49 700.88C875.49 704.09 875.94 706.38 876.85 707.75C877.75 709.12 878.98 709.7 880.54 709.51C882.07 709.31 883.29 708.41 884.19 706.81Z" />
					<path id="&lt;Compound Path&gt;" fill-rule="evenodd" class="shp19" d="M904.59 696.11C903.06 694.71 902.29 692.64 902.29 689.88C902.29 688.08 902.65 686.46 903.35 685.02C904.05 683.59 905.03 682.43 906.27 681.55C907.51 680.67 908.92 680.13 910.51 679.93C912.96 679.62 914.95 680.17 916.48 681.58C918.01 682.99 918.77 685.06 918.77 687.78C918.77 690.53 918.01 692.8 916.48 694.59C914.95 696.38 912.96 697.43 910.51 697.74C908.09 698.05 906.12 697.5 904.59 696.11ZM929.51 677.92L936.12 677.07L914.18 712L907.58 712.85L929.51 677.92ZM912.49 692.03C912.98 691.23 913.22 690.05 913.22 688.49C913.22 686.93 912.98 685.81 912.49 685.14C911.99 684.47 911.34 684.19 910.51 684.29C909.72 684.39 909.06 684.85 908.56 685.66C908.06 686.48 907.8 687.65 907.8 689.18C907.8 690.71 908.06 691.82 908.56 692.5C909.06 693.19 909.72 693.48 910.51 693.38C911.34 693.27 911.99 692.82 912.49 692.03ZM927.24 708.36C925.73 706.97 924.97 704.89 924.97 702.13C924.97 699.41 925.73 697.15 927.26 695.35C928.8 693.55 930.77 692.49 933.19 692.18C935.63 691.87 937.62 692.42 939.15 693.83C940.68 695.24 941.45 697.31 941.45 700.03C941.45 702.79 940.68 705.06 939.15 706.84C937.62 708.63 935.63 709.68 933.19 709.99C930.73 710.3 928.76 709.76 927.24 708.36ZM935.16 704.28C935.65 703.48 935.89 702.3 935.89 700.74C935.89 699.18 935.65 698.06 935.16 697.39C934.67 696.72 934.01 696.44 933.19 696.54C932.36 696.65 931.7 697.1 931.21 697.9C930.72 698.69 930.48 699.87 930.48 701.43C930.48 702.99 930.72 704.11 931.21 704.78C931.7 705.45 932.36 705.74 933.19 705.63C934.01 705.52 934.67 705.07 935.16 704.28Z" />
					<path id="&lt;Compound Path&gt;" fill-rule="evenodd" class="shp19" d="M976.17 702.58C973.46 701.48 971.33 699.77 969.79 697.42C968.24 695.08 967.47 692.32 967.47 689.14C967.47 685.96 968.24 683 969.79 680.26C971.33 677.52 973.46 675.26 976.17 673.48C978.88 671.69 981.93 670.58 985.32 670.15C988.72 669.72 991.77 670.05 994.48 671.14C997.19 672.23 999.31 673.95 1000.86 676.29C1002.4 678.63 1003.18 681.4 1003.18 684.58C1003.18 687.76 1002.4 690.72 1000.86 693.46C999.31 696.19 997.19 698.45 994.48 700.24C991.77 702.02 988.72 703.13 985.32 703.56C981.93 704 978.88 703.67 976.17 702.58ZM989.73 694.33C991.05 693.4 992.09 692.18 992.85 690.69C993.61 689.2 994 687.55 994 685.75C994 683.95 993.61 682.4 992.85 681.1C992.09 679.81 991.05 678.86 989.73 678.26C988.41 677.67 986.95 677.47 985.32 677.68C983.7 677.89 982.23 678.46 980.92 679.39C979.6 680.32 978.56 681.53 977.8 683.02C977.03 684.51 976.65 686.16 976.65 687.96C976.65 689.77 977.03 691.32 977.8 692.61C978.56 693.91 979.6 694.86 980.92 695.45C982.23 696.05 983.7 696.24 985.32 696.04C986.95 695.83 988.41 695.26 989.73 694.33Z" />
					<path id="&lt;Compound Path&gt;" class="shp19" d="M1022.09 673.12L1022.09 680.19L1036.27 678.38L1036.27 685.4L1022.09 687.21L1022.09 698.23L1013 699.39L1013 667.26L1038.2 664.04L1038.2 671.07L1022.09 673.12Z" />
					<path id="&lt;Compound Path&gt;" class="shp19" d="M1056.61 668.72L1056.61 675.78L1070.79 673.97L1070.79 681L1056.61 682.81L1056.61 693.82L1047.52 694.98L1047.52 662.85L1072.71 659.64L1072.71 666.66L1056.61 668.72Z" />
				</g>
			</g>
		</g>
	</g>
</svg>